<mxfile host="app.diagrams.net" modified="2020-10-19T17:16:28.162Z" agent="5.0 (Windows NT 10.0; Win64; x64) AppleWebKit/537.36 (KHTML, like Gecko) Chrome/86.0.4240.75 Safari/537.36" etag="nML1kRbEZPr4Gb9DKdbu" version="13.8.0" type="github">
  <diagram id="C5RBs43oDa-KdzZeNtuy" name="Page-1">
    <mxGraphModel dx="868" dy="393" grid="1" gridSize="10" guides="1" tooltips="1" connect="1" arrows="1" fold="1" page="1" pageScale="1" pageWidth="827" pageHeight="1169" math="0" shadow="0">
      <root>
        <mxCell id="WIyWlLk6GJQsqaUBKTNV-0" />
        <mxCell id="WIyWlLk6GJQsqaUBKTNV-1" parent="WIyWlLk6GJQsqaUBKTNV-0" />
        <mxCell id="tqNcctX5ttouMAWYUmZF-0" value="Book" style="html=1;" vertex="1" parent="WIyWlLk6GJQsqaUBKTNV-1">
          <mxGeometry x="320" y="220" width="110" height="50" as="geometry" />
        </mxCell>
        <mxCell id="tqNcctX5ttouMAWYUmZF-1" value="Fiction Category" style="html=1;" vertex="1" parent="WIyWlLk6GJQsqaUBKTNV-1">
          <mxGeometry x="100" y="270" width="110" height="50" as="geometry" />
        </mxCell>
        <mxCell id="tqNcctX5ttouMAWYUmZF-2" value="Library" style="html=1;" vertex="1" parent="WIyWlLk6GJQsqaUBKTNV-1">
          <mxGeometry x="320" y="380" width="110" height="50" as="geometry" />
        </mxCell>
        <mxCell id="tqNcctX5ttouMAWYUmZF-3" value="Author" style="html=1;" vertex="1" parent="WIyWlLk6GJQsqaUBKTNV-1">
          <mxGeometry x="320" y="70" width="110" height="50" as="geometry" />
        </mxCell>
        <mxCell id="tqNcctX5ttouMAWYUmZF-4" value="Publisher" style="html=1;" vertex="1" parent="WIyWlLk6GJQsqaUBKTNV-1">
          <mxGeometry x="540" y="220" width="110" height="50" as="geometry" />
        </mxCell>
        <mxCell id="tqNcctX5ttouMAWYUmZF-5" value="Owner" style="html=1;" vertex="1" parent="WIyWlLk6GJQsqaUBKTNV-1">
          <mxGeometry x="540" y="380" width="110" height="50" as="geometry" />
        </mxCell>
        <mxCell id="tqNcctX5ttouMAWYUmZF-6" value="Mystery Category" style="html=1;" vertex="1" parent="WIyWlLk6GJQsqaUBKTNV-1">
          <mxGeometry x="100" y="160" width="110" height="50" as="geometry" />
        </mxCell>
        <mxCell id="tqNcctX5ttouMAWYUmZF-7" value="Categorize" style="endArrow=block;endSize=16;endFill=0;html=1;exitX=1;exitY=0.5;exitDx=0;exitDy=0;entryX=0;entryY=0.5;entryDx=0;entryDy=0;" edge="1" parent="WIyWlLk6GJQsqaUBKTNV-1" source="tqNcctX5ttouMAWYUmZF-6" target="tqNcctX5ttouMAWYUmZF-0">
          <mxGeometry x="-0.4118" y="-27" width="160" relative="1" as="geometry">
            <mxPoint x="330" y="250" as="sourcePoint" />
            <mxPoint x="490" y="250" as="targetPoint" />
            <Array as="points">
              <mxPoint x="260" y="185" />
              <mxPoint x="260" y="245" />
            </Array>
            <mxPoint x="37" y="25" as="offset" />
          </mxGeometry>
        </mxCell>
        <mxCell id="tqNcctX5ttouMAWYUmZF-8" value="" style="endArrow=block;endSize=16;endFill=0;html=1;exitX=1;exitY=0.5;exitDx=0;exitDy=0;entryX=0;entryY=0.5;entryDx=0;entryDy=0;" edge="1" parent="WIyWlLk6GJQsqaUBKTNV-1" source="tqNcctX5ttouMAWYUmZF-1" target="tqNcctX5ttouMAWYUmZF-0">
          <mxGeometry width="160" relative="1" as="geometry">
            <mxPoint x="330" y="250" as="sourcePoint" />
            <mxPoint x="490" y="250" as="targetPoint" />
            <Array as="points">
              <mxPoint x="260" y="295" />
              <mxPoint x="260" y="245" />
            </Array>
          </mxGeometry>
        </mxCell>
        <mxCell id="tqNcctX5ttouMAWYUmZF-9" value="Categorize" style="edgeLabel;html=1;align=center;verticalAlign=middle;resizable=0;points=[];" vertex="1" connectable="0" parent="tqNcctX5ttouMAWYUmZF-8">
          <mxGeometry x="-0.375" y="15" relative="1" as="geometry">
            <mxPoint x="25" y="-15" as="offset" />
          </mxGeometry>
        </mxCell>
        <mxCell id="tqNcctX5ttouMAWYUmZF-10" value="" style="endArrow=diamondThin;endFill=0;endSize=24;html=1;exitX=0.5;exitY=1;exitDx=0;exitDy=0;entryX=0.5;entryY=0;entryDx=0;entryDy=0;" edge="1" parent="WIyWlLk6GJQsqaUBKTNV-1" source="tqNcctX5ttouMAWYUmZF-4" target="tqNcctX5ttouMAWYUmZF-5">
          <mxGeometry width="160" relative="1" as="geometry">
            <mxPoint x="330" y="250" as="sourcePoint" />
            <mxPoint x="490" y="250" as="targetPoint" />
            <Array as="points">
              <mxPoint x="595" y="320" />
            </Array>
          </mxGeometry>
        </mxCell>
        <mxCell id="tqNcctX5ttouMAWYUmZF-11" value="Own" style="edgeLabel;html=1;align=center;verticalAlign=middle;resizable=0;points=[];" vertex="1" connectable="0" parent="tqNcctX5ttouMAWYUmZF-10">
          <mxGeometry x="-0.0909" y="-11" relative="1" as="geometry">
            <mxPoint x="11" y="-11" as="offset" />
          </mxGeometry>
        </mxCell>
        <mxCell id="tqNcctX5ttouMAWYUmZF-12" value="&lt;font style=&quot;font-size: 14px&quot;&gt;1...*&lt;/font&gt;" style="edgeLabel;html=1;align=center;verticalAlign=middle;resizable=0;points=[];" vertex="1" connectable="0" parent="tqNcctX5ttouMAWYUmZF-10">
          <mxGeometry x="0.6545" y="3" relative="1" as="geometry">
            <mxPoint x="12" y="-81" as="offset" />
          </mxGeometry>
        </mxCell>
        <mxCell id="tqNcctX5ttouMAWYUmZF-13" value="" style="endArrow=diamondThin;endFill=1;endSize=24;html=1;exitX=0.5;exitY=0;exitDx=0;exitDy=0;entryX=0.5;entryY=1;entryDx=0;entryDy=0;" edge="1" parent="WIyWlLk6GJQsqaUBKTNV-1" source="tqNcctX5ttouMAWYUmZF-0" target="tqNcctX5ttouMAWYUmZF-3">
          <mxGeometry width="160" relative="1" as="geometry">
            <mxPoint x="330" y="250" as="sourcePoint" />
            <mxPoint x="490" y="250" as="targetPoint" />
          </mxGeometry>
        </mxCell>
        <mxCell id="tqNcctX5ttouMAWYUmZF-14" value="Write" style="edgeLabel;html=1;align=center;verticalAlign=middle;resizable=0;points=[];" vertex="1" connectable="0" parent="tqNcctX5ttouMAWYUmZF-13">
          <mxGeometry x="-0.22" y="2" relative="1" as="geometry">
            <mxPoint as="offset" />
          </mxGeometry>
        </mxCell>
        <mxCell id="tqNcctX5ttouMAWYUmZF-15" value="&lt;font style=&quot;font-size: 14px&quot;&gt;0...*&lt;/font&gt;" style="edgeLabel;html=1;align=center;verticalAlign=middle;resizable=0;points=[];" vertex="1" connectable="0" parent="tqNcctX5ttouMAWYUmZF-13">
          <mxGeometry x="-0.66" y="3" relative="1" as="geometry">
            <mxPoint x="18" as="offset" />
          </mxGeometry>
        </mxCell>
        <mxCell id="tqNcctX5ttouMAWYUmZF-16" value="" style="endArrow=diamondThin;endFill=1;endSize=24;html=1;exitX=1;exitY=0.5;exitDx=0;exitDy=0;entryX=0;entryY=0.5;entryDx=0;entryDy=0;" edge="1" parent="WIyWlLk6GJQsqaUBKTNV-1" source="tqNcctX5ttouMAWYUmZF-0" target="tqNcctX5ttouMAWYUmZF-4">
          <mxGeometry width="160" relative="1" as="geometry">
            <mxPoint x="330" y="250" as="sourcePoint" />
            <mxPoint x="490" y="250" as="targetPoint" />
          </mxGeometry>
        </mxCell>
        <mxCell id="tqNcctX5ttouMAWYUmZF-17" value="Publish" style="edgeLabel;html=1;align=center;verticalAlign=middle;resizable=0;points=[];" vertex="1" connectable="0" parent="tqNcctX5ttouMAWYUmZF-16">
          <mxGeometry x="-0.3636" relative="1" as="geometry">
            <mxPoint x="15" as="offset" />
          </mxGeometry>
        </mxCell>
        <mxCell id="tqNcctX5ttouMAWYUmZF-18" value="&lt;font style=&quot;font-size: 14px&quot;&gt;0...*&lt;/font&gt;" style="edgeLabel;html=1;align=center;verticalAlign=middle;resizable=0;points=[];" vertex="1" connectable="0" parent="tqNcctX5ttouMAWYUmZF-16">
          <mxGeometry x="-0.8" y="-1" relative="1" as="geometry">
            <mxPoint x="9" y="-16" as="offset" />
          </mxGeometry>
        </mxCell>
        <mxCell id="tqNcctX5ttouMAWYUmZF-19" value="Place at" style="html=1;verticalAlign=bottom;endArrow=block;exitX=0.5;exitY=1;exitDx=0;exitDy=0;entryX=0.5;entryY=0;entryDx=0;entryDy=0;" edge="1" parent="WIyWlLk6GJQsqaUBKTNV-1" source="tqNcctX5ttouMAWYUmZF-0" target="tqNcctX5ttouMAWYUmZF-2">
          <mxGeometry width="80" relative="1" as="geometry">
            <mxPoint x="370" y="250" as="sourcePoint" />
            <mxPoint x="450" y="250" as="targetPoint" />
          </mxGeometry>
        </mxCell>
        <mxCell id="tqNcctX5ttouMAWYUmZF-20" value="&lt;font style=&quot;font-size: 14px&quot;&gt;0...*&lt;/font&gt;" style="edgeLabel;html=1;align=center;verticalAlign=middle;resizable=0;points=[];" vertex="1" connectable="0" parent="tqNcctX5ttouMAWYUmZF-19">
          <mxGeometry x="-0.7818" y="1" relative="1" as="geometry">
            <mxPoint x="14" as="offset" />
          </mxGeometry>
        </mxCell>
        <mxCell id="tqNcctX5ttouMAWYUmZF-21" value="&lt;font style=&quot;font-size: 14px&quot;&gt;0...*&lt;/font&gt;" style="edgeLabel;html=1;align=center;verticalAlign=middle;resizable=0;points=[];" vertex="1" connectable="0" parent="tqNcctX5ttouMAWYUmZF-19">
          <mxGeometry x="0.6" y="2" relative="1" as="geometry">
            <mxPoint x="13" as="offset" />
          </mxGeometry>
        </mxCell>
      </root>
    </mxGraphModel>
  </diagram>
</mxfile>
